[Header]
FileType HTR
DataType HTRS
FileVersion 1
NumSegments 22
NumFrames 5
DataFrameRate 24
EulerRotationOrder ZYX
CalibrationUnits mm
RotationUnits Degrees
GlobalAxisofGravity Y
BoneLengthAxis Y
ScaleFactor 1.0
[SegmentNames&Hierarchy]
reference	GLOBAL
Hips	reference
Spine	Hips
Spine1	Spine
Neck	Spine1
Head	Neck
LeftShoulder	Spine1
LeftArm	LeftShoulder
LeftForeArm	LeftArm
LeftHand	LeftForeArm
RightShoulder	Spine1
RightArm	RightShoulder
RightForeArm	RightArm
RightHand	RightForeArm
LeftUpLeg	Hips
LeftLeg	LeftUpLeg
LeftFoot	LeftLeg
LeftToeBase	LeftFoot
RightUpLeg	Hips
RightLeg	RightUpLeg
RightFoot	RightLeg
RightToeBase	RightFoot
[BasePosition]
reference	0	0	0	0	0	0	1
Hips	0	0	0	0	0	0	1
Spine	0	0	0	0	-0	90	1
Spine1	0	0	0	0	0	0	1
Neck	0	0	0	-7.352327771	-7.352327771	90	1
Head	0	0	0	0	-0	90	1
LeftShoulder	0	0	0	0	0	0	1
LeftArm	0	0	0	0	0	0	1
LeftForeArm	0	0	0	0	0	0	1
LeftHand	0	0	0	0	0	0	1
RightShoulder	0	0	0	0	-0	180	1
RightArm	0	0	0	0	-0	180	1
RightForeArm	0	0	0	0	-0	180	1
RightHand	0	0	0	0	-0	180	1
LeftUpLeg	0	0	0	0	-0	-90	1
LeftLeg	0	0	0	0	-0	-90	1
LeftFoot	0	0	0	66.57146043	-66.57146043	-90	1
LeftToeBase	0	0	0	0	-90	0	1
RightUpLeg	0	0	0	0	-0	-90	1
RightLeg	0	0	0	0	-0	-90	1
RightFoot	0	0	0	66.57146043	-66.57146043	-90	1
RightToeBase	0	0	0	0	-90	0	1
[reference]
86	0	0	0	0	-0	0	1.0
87	0	0	0	0	-0	0	1.0
88	0	0	0	0	-0	0	1.0
89	0	0	0	0	-0	0	1.0
90	0	0	0	0	-0	0	1.0
[Hips]
86	-2.93411994	8.664850235	13.22548962	174.3852539	-152.9036407	-183.3895264	1.0
87	-2.93411994	8.664850235	13.22548962	174.3852539	-152.9036407	-183.3895264	1.0
88	-2.93411994	8.664850235	13.22548962	174.3852539	-152.9036407	-183.3895264	1.0
89	-2.93411994	8.664850235	13.22548962	174.3852539	-152.9036407	-183.3895264	1.0
90	-2.93411994	8.664850235	13.22548962	174.3852539	-152.9036407	-183.3895264	1.0
[Spine]
86	0	0.7457100153	0	-0.3456564844	-2.07793808	-87.27664185	1.0
87	0	0.7457100153	0	2.634070396	1.609848142	-89.72737885	1.0
88	0	0.7457100153	0	2.634070396	1.609848142	-89.72737885	1.0
89	0	0.7457100153	0	2.634070396	1.609848142	-89.72737885	1.0
90	0	0.7457100153	0	2.634070396	1.609848142	-89.72737885	1.0
[Spine1]
86	0	2.140589952	0	5.016722679	0.3844573796	0.2178507745	1.0
87	0	2.140589952	0	3.557600498	0.2929024696	2.998491287	1.0
88	0	2.140589952	0	3.557600498	0.2929024696	2.998491287	1.0
89	0	2.140589952	0	3.557600498	0.2929024696	2.998491287	1.0
90	0	2.140589952	0	3.557600498	0.2929024696	2.998491287	1.0
[Neck]
86	0	2.32246995	0	-15.25383759	7.751559734	-84.95317841	1.0
87	0	2.32246995	0	-15.25383759	7.751559734	-84.95317841	1.0
88	0	2.32246995	0	-15.25383759	7.751559734	-84.95317841	1.0
89	0	2.32246995	0	-15.25383759	7.751559734	-84.95317841	1.0
90	0	2.32246995	0	-15.25383759	7.751559734	-84.95317841	1.0
[Head]
86	0	1.409579992	0.1818799973	11.0484848	-0.8689831495	-86.25675201	1.0
87	0	1.409579992	0.1818799973	11.0484848	-0.8689831495	-86.25675201	1.0
88	0	1.409579992	0.1818799973	11.0484848	-0.8689831495	-86.25675201	1.0
89	0	1.409579992	0.1818799973	11.0484848	-0.8689831495	-86.25675201	1.0
90	0	1.409579992	0.1818799973	11.0484848	-0.8689831495	-86.25675201	1.0
[LeftShoulder]
86	0.3668199778	1.946700096	-0.02662999928	-0.2570999265	-19.5519886	-1.818628907	1.0
87	0.3668199778	1.946700096	-0.02662999928	-0.2570999265	-19.5519886	-1.818628907	1.0
88	0.3668199778	1.946700096	-0.02662999928	-0.2570999265	-19.5519886	-1.818628907	1.0
89	0.3668199778	1.946700096	-0.02662999928	-0.2570999265	-19.5519886	-1.818628907	1.0
90	0.3668199778	1.946700096	-0.02662999928	-0.2570999265	-19.5519886	-1.818628907	1.0
[LeftArm]
86	1.140689969	0	0	-9.811813354	1.563433647	-23.91858482	1.0
87	1.140689969	0	0	-9.811813354	1.563433647	-23.91858482	1.0
88	1.140689969	0	0	-9.811813354	1.563433647	-23.91858482	1.0
89	1.140689969	0	0	-9.811813354	1.563433647	-23.91858482	1.0
90	1.140689969	0	0	-9.811813354	1.563433647	-23.91858482	1.0
[LeftForeArm]
86	2.749800205	0	0	109.0698242	-17.81289291	-64.05581665	1.0
87	2.749800205	0	0	109.0698242	-17.81289291	-64.05581665	1.0
88	2.749800205	0	0	109.0698242	-17.81289291	-64.05581665	1.0
89	2.749800205	0	0	109.0698242	-17.81289291	-64.05581665	1.0
90	2.749800205	0	0	109.0698242	-17.81289291	-64.05581665	1.0
[LeftHand]
86	2.295179844	0	0	4.954334259	-33.09126282	-32.07188034	1.0
87	2.295179844	0	0	4.954334259	-33.09126282	-32.07188034	1.0
88	2.295179844	0	0	4.954334259	-33.09126282	-32.07188034	1.0
89	2.295179844	0	0	4.954334259	-33.09126282	-32.07188034	1.0
90	2.295179844	0	0	4.954334259	-33.09126282	-32.07188034	1.0
[RightShoulder]
86	-0.3601199985	1.946700096	-0.02662999928	-2.186382294	12.22294044	184.3332825	1.0
87	-0.3601199985	1.946700096	-0.02662999928	-1.92072463	9.879216194	183.7444611	1.0
88	-0.3601199985	1.946700096	-0.02662999928	-1.92072463	9.879216194	183.7444611	1.0
89	-0.3601199985	1.946700096	-0.02662999928	-1.92072463	9.879216194	183.7444611	1.0
90	-0.3601199985	1.946700096	-0.02662999928	-1.92072463	9.879216194	183.7444611	1.0
[RightArm]
86	-1.140689969	0	0	59.81768036	14.73055458	-103.3841858	1.0
87	-1.140689969	0	0	59.96664429	21.86196709	-104.784462	1.0
88	-1.140689969	0	0	94.6704483	8.647590637	-99.34003448	1.0
89	-1.140689969	0	0	193.9619598	2.880809546	-108.3810425	1.0
90	-1.140689969	0	0	253.5002136	10.05616665	-108.6157455	1.0
[RightForeArm]
86	-2.749800205	0	0	55.51553726	5.495697975	181.2892303	1.0
87	-2.749800205	0	0	55.51553726	5.495697975	181.2892303	1.0
88	-2.749800205	0	0	55.51553726	5.495697975	181.2892303	1.0
89	-2.749800205	0	0	55.51553726	5.495697975	181.2892303	1.0
90	-2.749800205	0	0	55.51553726	5.495697975	181.2892303	1.0
[RightHand]
86	-2.295179844	0	0	0.6447205544	6.201163292	162.539093	1.0
87	-2.295179844	0	0	0.6447205544	6.201163292	162.539093	1.0
88	-2.295179844	0	0	0.6447205544	6.201163292	162.539093	1.0
89	-2.295179844	0	0	0.6447205544	6.201163292	162.539093	1.0
90	-2.295179844	0	0	0.6447205544	6.201163292	162.539093	1.0
[LeftUpLeg]
86	0.9094099998	0	0	9.002350807	0.8776894808	100.0904236	1.0
87	0.9094099998	0	0	9.002350807	0.8776894808	100.0904236	1.0
88	0.9094099998	0	0	9.002350807	0.8776894808	100.0904236	1.0
89	0.9094099998	0	0	9.002350807	0.8776894808	100.0904236	1.0
90	0.9094099998	0	0	9.002350807	0.8776894808	100.0904236	1.0
[LeftLeg]
86	0	-4.498080254	0	40.98630142	14.45191002	65.71282196	1.0
87	0	-4.498080254	0	40.98630142	14.45191002	65.71282196	1.0
88	0	-4.498080254	0	40.98630142	14.45191002	65.71282196	1.0
89	0	-4.498080254	0	40.98630142	14.45191002	65.71282196	1.0
90	0	-4.498080254	0	40.98630142	14.45191002	65.71282196	1.0
[LeftFoot]
86	0	-3.729400158	0	-46.40264893	119.596405	8.144195557	1.0
87	0	-3.729400158	0	-46.40264893	119.596405	8.144195557	1.0
88	0	-3.729400158	0	-46.40264893	119.596405	8.144195557	1.0
89	0	-3.729400158	0	-46.40264893	119.596405	8.144195557	1.0
90	0	-3.729400158	0	-46.40264893	119.596405	8.144195557	1.0
[LeftToeBase]
86	0	-0.5911099911	1.364109993	0	0	0	1.0
87	0	-0.5911099911	1.364109993	0	0	0	1.0
88	0	-0.5911099911	1.364109993	0	0	0	1.0
89	0	-0.5911099911	1.364109993	0	0	0	1.0
90	0	-0.5911099911	1.364109993	0	0	0	1.0
[RightUpLeg]
86	-0.9094099998	0	0	5.110183716	-1.145349503	96.74427795	1.0
87	-0.9094099998	0	0	5.128285408	-1.166476727	96.87753296	1.0
88	-0.9094099998	0	0	5.127726555	-1.165878773	96.87352753	1.0
89	-0.9094099998	0	0	5.127554417	-1.16529429	96.87325287	1.0
90	-0.9094099998	0	0	5.126924992	-1.164655924	96.87263489	1.0
[RightLeg]
86	0	-4.498080254	0	8.34387207	-0.8377834558	91.25297546	1.0
87	0	-4.498080254	0	8.34387207	-0.8377834558	91.25297546	1.0
88	0	-4.498080254	0	8.34387207	-0.8377834558	91.25297546	1.0
89	0	-4.498080254	0	8.34387207	-0.8377834558	91.25297546	1.0
90	0	-4.498080254	0	8.34387207	-0.8377834558	91.25297546	1.0
[RightFoot]
86	0	-3.729400158	0	-123.7011566	108.0680771	-80.44973755	1.0
87	0	-3.729400158	0	-125.9429474	108.0983658	-82.88243103	1.0
88	0	-3.729400158	0	-125.8170242	108.1225891	-82.79372406	1.0
89	0	-3.729400158	0	-126.1764526	108.1792984	-83.17293549	1.0
90	0	-3.729400158	0	-126.8202209	108.4328918	-83.85189819	1.0
[RightToeBase]
86	0	-0.5911099911	1.364109993	0	0	0	1.0
87	0	-0.5911099911	1.364109993	0	0	0	1.0
88	0	-0.5911099911	1.364109993	0	0	0	1.0
89	0	-0.5911099911	1.364109993	0	0	0	1.0
90	0	-0.5911099911	1.364109993	0	0	0	1.0
[EndOfFile]
